HIERARCHY
ROOT joint_Root
{
	OFFSET 0.0 0.0 0.0
	CHANNELS 6 Xposition Yposition Zposition Zrotation Xrotation Yrotation 
	JOINT Hips
	{
		OFFSET -0.726466 93.3139 -2.00062
		CHANNELS 6 Xposition Yposition Zposition Zrotation Xrotation Yrotation 
		JOINT Spine
		{
			OFFSET 15.7357 0.0 0.0
			CHANNELS 6 Xposition Yposition Zposition Zrotation Xrotation Yrotation 
			JOINT Chest
			{
				OFFSET 8.98455 -0.406207 0.0
				CHANNELS 6 Xposition Yposition Zposition Zrotation Xrotation Yrotation 
				JOINT Neck
				{
					OFFSET 16.3773 0.0 0.0
					CHANNELS 6 Xposition Yposition Zposition Zrotation Xrotation Yrotation 
					JOINT Head
					{
						OFFSET 6.45672 0.0 0.0
						CHANNELS 6 Xposition Yposition Zposition Zrotation Xrotation Yrotation 
						End Site
						{
							OFFSET 0.0 0.0 0.0
						}
					}
				}
				JOINT Shoulder_L
				{
					OFFSET 12.9942 -0.242716 4.98039
					CHANNELS 6 Xposition Yposition Zposition Zrotation Xrotation Yrotation 
					JOINT UpperArm_L
					{
						OFFSET 5.34809 0.0 0.0
						CHANNELS 6 Xposition Yposition Zposition Zrotation Xrotation Yrotation 
						JOINT LowerArm_L
						{
							OFFSET 24.3286 1.87007e-05 0.0
							CHANNELS 6 Xposition Yposition Zposition Zrotation Xrotation Yrotation 
							JOINT Hand_L
							{
								OFFSET 22.2916 0.0 0.0
								CHANNELS 6 Xposition Yposition Zposition Zrotation Xrotation Yrotation 
								End Site
								{
									OFFSET 0.0 0.0 0.0
								}
							}
						}
					}
				}
				JOINT Shoulder_R
				{
					OFFSET 12.9945 -0.242716 -4.98039
					CHANNELS 6 Xposition Yposition Zposition Zrotation Xrotation Yrotation 
					JOINT UpperArm_R
					{
						OFFSET -5.34813 0.0 0.0
						CHANNELS 6 Xposition Yposition Zposition Zrotation Xrotation Yrotation 
						JOINT LowerArm_R
						{
							OFFSET -24.3289 0.000322201 0.0
							CHANNELS 6 Xposition Yposition Zposition Zrotation Xrotation Yrotation 
							JOINT Hand_R
							{
								OFFSET -22.2915 -0.000108084 0.0
								CHANNELS 6 Xposition Yposition Zposition Zrotation Xrotation Yrotation 
								End Site
								{
									OFFSET 0.0 0.0 0.0
								}
							}
						}
					}
				}
			}
		}
		JOINT UpperLeg_L
		{
			OFFSET -2.19248 -6.46944 0.0
			CHANNELS 6 Xposition Yposition Zposition Zrotation Xrotation Yrotation 
			JOINT LowerLeg_L
			{
				OFFSET 39.0811 0.0 -1.23785e-05
				CHANNELS 6 Xposition Yposition Zposition Zrotation Xrotation Yrotation 
				JOINT Foot_L
				{
					OFFSET 40.9854 0.0 -1.26872e-05
					CHANNELS 6 Xposition Yposition Zposition Zrotation Xrotation Yrotation 
					JOINT Toes_L
					{
						OFFSET 11.7543 0.0 0.0
						CHANNELS 6 Xposition Yposition Zposition Zrotation Xrotation Yrotation 
						End Site
						{
							OFFSET 0.0 0.0 0.0
						}
					}
				}
			}
		}
		JOINT UpperLeg_R
		{
			OFFSET -2.19251 6.46944 0.0
			CHANNELS 6 Xposition Yposition Zposition Zrotation Xrotation Yrotation 
			JOINT LowerLeg_R
			{
				OFFSET -39.0811 -0.00228153 -0.0401928
				CHANNELS 6 Xposition Yposition Zposition Zrotation Xrotation Yrotation 
				JOINT Foot_R
				{
					OFFSET -40.9854 0.0 0.0
					CHANNELS 6 Xposition Yposition Zposition Zrotation Xrotation Yrotation 
					JOINT Toes_R
					{
						OFFSET -11.7543 0.0 0.0
						CHANNELS 6 Xposition Yposition Zposition Zrotation Xrotation Yrotation 
						End Site
						{
							OFFSET 0.0 0.0 0.0
						}
					}
				}
			}
		}
	}
}
MOTION
Frames:	9
Frame Time:	0.0333333
0.000000 0.000000 0.000000 0.000000 0.000000 -0.000000 -0.395619 92.178100 1.145110 87.885000 -1.872420 4.365540 15.735700 0.000005 -0.000001 77.269700 87.207300 -76.692200 8.984550 -0.406207 -0.000000 -2.311380 -1.281220 1.128940 16.377300 -0.000001 -0.000001 -0.836226 -1.322560 0.568501 6.456720 -0.000001 -0.000000 -1.779370 -0.951387 0.504299 12.994200 -0.242716 4.980390 -83.318800 -12.245400 -61.088500 5.348090 -0.000007 -0.000001 -57.857200 -50.289400 -107.073000 24.328600 0.000019 0.000005 -2.311740 -2.854240 -39.032000 22.291600 -0.000001 0.000005 16.456200 5.562350 -9.304390 12.994500 -0.242716 -4.980390 94.489100 -9.558830 -64.695700 -5.348130 -0.000001 -0.000004 -63.009500 -44.668500 -119.220000 -24.328900 0.000322 -0.000009 -2.659970 -4.676900 -29.663700 -22.291500 -0.000108 -0.000004 17.238100 5.445100 -4.465170 -2.192480 -6.469440 -0.000000 -169.475000 -17.917600 -1.716450 39.081100 -0.000007 -0.000012 -0.170140 0.424600 21.836500 40.985400 -0.000006 -0.000013 -6.393750 -2.469610 -63.622800 11.754300 -0.000000 0.000003 -0.000128 -0.001268 -16.626000 -2.192510 6.469440 -0.000001 173.582000 20.483000 -179.488000 -39.081100 -0.002282 -0.040193 0.018976 -0.045969 18.804100 -40.985400 0.000008 0.000006 -1.781190 2.196280 -62.735100 -11.754300 -0.000006 -0.000006 -0.004270 -0.054224 -18.778900
0.000000 0.000000 0.000000 0.000000 0.000000 -0.000000 -0.367060 92.169000 1.142480 87.876600 -1.933580 4.304990 15.735700 0.000005 -0.000001 77.059300 87.200400 -76.482400 8.984550 -0.406207 -0.000000 -2.302370 -1.304210 1.127540 16.377300 -0.000001 -0.000001 -0.946227 -1.289650 0.472748 6.456720 -0.000001 -0.000000 -1.952630 -0.899025 0.507762 12.994200 -0.242716 4.980390 -83.453500 -11.997000 -61.097200 5.348090 -0.000007 -0.000001 -57.658000 -50.757900 -101.576000 24.328600 0.000019 0.000005 -2.164790 -2.747400 -38.260600 22.291600 -0.000001 0.000005 16.561400 5.555280 -8.958010 12.994500 -0.242716 -4.980390 94.220200 -8.941320 -64.603000 -5.348130 -0.000001 -0.000004 -61.483900 -45.562400 -113.112000 -24.328900 0.000322 -0.000009 -2.479050 -4.506060 -28.847200 -22.291500 -0.000108 -0.000004 17.134300 5.431820 -4.002020 -2.192480 -6.469440 -0.000000 -169.492000 -17.978200 -1.809590 39.081100 -0.000007 -0.000012 -0.172124 0.427633 21.925200 40.985400 -0.000006 -0.000013 -6.383820 -2.474490 -63.675300 11.754300 -0.000000 0.000003 -0.000117 -0.001174 -16.622500 -2.192510 6.469440 -0.000001 173.595000 20.426300 -179.593000 -39.081100 -0.002282 -0.040193 0.016814 -0.039521 18.847700 -40.985400 0.000008 0.000006 -1.849910 2.196080 -62.732700 -11.754300 -0.000006 -0.000006 -0.004218 -0.053686 -18.757000
0.000000 0.000000 0.000000 0.000000 0.000000 -0.000000 -0.336793 92.175200 1.134890 87.913500 -1.928980 4.215100 15.735700 0.000005 -0.000001 76.264500 87.187700 -75.702100 8.984550 -0.406207 -0.000000 -2.295510 -1.384480 1.096990 16.377300 -0.000001 -0.000001 -1.163370 -1.248550 0.359960 6.456720 -0.000001 -0.000000 -1.986650 -0.812833 0.544654 12.994200 -0.242716 4.980390 -83.666300 -11.634200 -61.171400 5.348090 -0.000007 -0.000001 -57.945400 -51.111200 -96.169800 24.328600 0.000019 0.000005 -2.053180 -2.707570 -37.195900 22.291600 -0.000001 0.000005 17.002600 5.551460 -8.775420 12.994500 -0.242716 -4.980390 93.923100 -8.273470 -64.518300 -5.348130 -0.000001 -0.000004 -59.498700 -46.322700 -106.403000 -24.328900 0.000322 -0.000009 -2.336250 -4.399600 -27.994400 -22.291500 -0.000108 -0.000004 17.266400 5.423170 -3.706260 -2.192480 -6.469440 -0.000000 -169.583000 -18.027000 -1.889630 39.081100 -0.000007 -0.000012 -0.169866 0.422920 21.883000 40.985400 -0.000006 -0.000013 -6.348410 -2.444290 -63.652000 11.754300 -0.000000 0.000003 -0.000115 -0.001162 -16.622000 -2.192510 6.469440 -0.000001 173.568000 20.432800 -179.676000 -39.081100 -0.002282 -0.040193 0.016302 -0.038116 18.803400 -40.985400 0.000008 0.000006 -1.917200 2.204610 -62.690700 -11.754300 -0.000006 -0.000006 -0.004131 -0.052795 -18.720700
0.000000 0.000000 0.000000 0.000000 0.000000 -0.000000 -0.312335 92.168100 1.146890 87.928600 -1.897860 4.125640 15.735700 0.000005 -0.000001 76.022600 87.166000 -75.457500 8.984550 -0.406207 -0.000000 -2.258940 -1.418060 1.102230 16.377300 -0.000001 -0.000001 -1.342170 -1.169020 0.273114 6.456720 -0.000001 -0.000000 -2.081100 -0.729452 0.482328 12.994200 -0.242716 4.980390 -83.905900 -11.231800 -61.271400 5.348090 -0.000007 -0.000001 -58.933600 -51.300000 -90.901300 24.328600 0.000019 0.000005 -1.779010 -2.437850 -36.136900 22.291600 -0.000001 0.000005 17.438000 5.541860 -8.328260 12.994500 -0.242716 -4.980390 93.540700 -7.418940 -64.395900 -5.348130 -0.000001 -0.000004 -57.256500 -46.863400 -99.554700 -24.328900 0.000322 -0.000009 -2.177250 -4.271400 -27.030100 -22.291500 -0.000108 -0.000004 17.321300 5.414090 -3.400940 -2.192480 -6.469440 -0.000000 -169.641000 -18.077700 -2.015510 39.081100 -0.000007 -0.000012 -0.171286 0.425117 21.945400 40.985400 -0.000006 -0.000013 -6.317640 -2.379400 -63.683700 11.754300 -0.000000 0.000003 -0.000127 -0.001262 -16.625700 -2.192510 6.469440 -0.000001 173.551000 20.394300 -179.757000 -39.081100 -0.002282 -0.040193 0.013279 -0.029239 18.803500 -40.985400 0.000008 0.000006 -2.060580 2.179550 -62.689600 -11.754300 -0.000006 -0.000006 -0.004205 -0.053559 -18.751900
0.000000 0.000000 0.000000 0.000000 0.000000 -0.000000 -0.283277 92.169800 1.166010 87.981600 -1.865930 4.025900 15.735700 0.000005 -0.000001 75.980300 87.155900 -75.439900 8.984550 -0.406207 -0.000000 -2.240510 -1.424790 1.052820 16.377300 -0.000001 -0.000001 -1.484920 -1.167510 0.276343 6.456720 -0.000001 -0.000000 -2.074370 -0.642877 0.517355 12.994200 -0.242716 4.980390 -84.014000 -11.142900 -61.516800 5.348090 -0.000007 -0.000001 -60.110100 -51.653600 -85.027700 24.328600 0.000019 0.000005 -1.995480 -2.831060 -35.202000 22.291600 -0.000001 0.000005 18.143100 5.540260 -8.255840 12.994500 -0.242716 -4.980390 93.171800 -6.617180 -64.317400 -5.348130 -0.000001 -0.000004 -55.794600 -46.975900 -92.662300 -24.328900 0.000322 -0.000009 -2.098100 -4.161100 -26.776700 -22.291500 -0.000108 -0.000004 17.276900 5.396800 -2.833440 -2.192480 -6.469440 -0.000000 -169.742000 -18.109900 -2.093990 39.081100 -0.000007 -0.000012 -0.170196 0.423303 21.903600 40.985400 -0.000006 -0.000013 -6.296310 -2.357250 -63.672900 11.754300 -0.000000 0.000003 -0.000110 -0.001116 -16.620300 -2.192510 6.469440 -0.000001 173.487000 20.421800 -179.810000 -39.081100 -0.002282 -0.040193 0.009190 -0.017282 18.749500 -40.985400 0.000008 0.000006 -2.228330 2.199470 -62.664700 -11.754300 -0.000006 -0.000006 -0.004033 -0.051785 -18.679600
0.000000 0.000000 0.000000 0.000000 0.000000 -0.000000 -0.273109 92.164500 1.203630 87.994500 -1.802410 3.930570 15.735700 0.000005 -0.000001 75.664800 87.126800 -75.116700 8.984550 -0.406207 -0.000000 -2.191660 -1.469960 1.067890 16.377300 -0.000001 -0.000001 -1.638680 -1.142630 0.240100 6.456720 -0.000001 -0.000000 -1.999450 -0.642035 0.466395 12.994200 -0.242716 4.980390 -84.094200 -11.144700 -61.845400 5.348090 -0.000007 -0.000001 -61.833900 -52.175000 -78.899500 24.328600 0.000019 0.000005 -2.139110 -3.093020 -34.693800 22.291600 -0.000001 0.000005 18.494400 5.532060 -7.886580 12.994500 -0.242716 -4.980390 92.855200 -5.964550 -64.360400 -5.348130 -0.000001 -0.000004 -54.684300 -46.976100 -85.658700 -24.328900 0.000322 -0.000009 -2.236960 -4.405220 -26.944900 -22.291500 -0.000108 -0.000004 17.515200 5.381500 -2.345810 -2.192480 -6.469440 -0.000000 -169.781000 -18.100800 -2.188230 39.081100 -0.000007 -0.000012 -0.173511 0.431231 21.918200 40.985400 -0.000006 -0.000013 -6.292090 -2.307150 -63.696900 11.754300 -0.000000 0.000003 -0.000119 -0.001193 -16.623200 -2.192510 6.469440 -0.000001 173.474000 20.409300 -179.849000 -39.081100 -0.002282 -0.040193 0.005440 -0.006250 18.703800 -40.985400 0.000008 0.000006 -2.442210 2.152450 -62.657900 -11.754300 -0.000006 -0.000006 -0.004089 -0.052365 -18.703200
0.000000 0.000000 0.000000 0.000000 0.000000 -0.000000 -0.250446 92.162100 1.236730 88.013800 -1.770280 3.828290 15.735700 0.000005 -0.000001 76.052900 87.100400 -75.504500 8.984550 -0.406207 -0.000000 -2.130900 -1.444720 1.069950 16.377300 -0.000001 -0.000001 -1.687400 -1.122530 0.325676 6.456720 -0.000001 -0.000000 -2.031280 -0.748294 0.465229 12.994200 -0.242716 4.980390 -84.253300 -11.060600 -62.320000 5.348090 -0.000007 -0.000001 -62.910700 -52.894600 -72.475700 24.328600 0.000019 0.000005 -2.546010 -3.827220 -33.673400 22.291600 -0.000001 0.000005 19.341900 5.528330 -7.722340 12.994500 -0.242716 -4.980390 92.496100 -5.243080 -64.497000 -5.348130 -0.000001 -0.000004 -53.278000 -47.026000 -78.479400 -24.328900 0.000322 -0.000009 -2.355830 -4.620170 -27.044800 -22.291500 -0.000108 -0.000004 17.491500 5.369320 -1.965430 -2.192480 -6.469440 -0.000000 -169.846000 -18.123500 -2.283900 39.081100 -0.000007 -0.000012 -0.172332 0.428115 21.926800 40.985400 -0.000006 -0.000013 -6.274540 -2.276330 -63.720900 11.754300 -0.000000 0.000003 -0.000110 -0.001113 -16.620200 -2.192510 6.469440 -0.000001 173.470000 20.421600 -179.942000 -39.081100 -0.002282 -0.040193 0.004038 -0.002109 18.711600 -40.985400 0.000008 0.000006 -2.458040 2.105150 -62.672000 -11.754300 -0.000006 -0.000006 -0.004214 -0.053645 -18.755400
0.000000 0.000000 0.000000 0.000000 0.000000 -0.000000 -0.249890 92.153600 1.281090 88.024900 -1.688540 3.741860 15.735700 0.000005 -0.000001 76.170300 87.073600 -75.632600 8.984550 -0.406207 -0.000000 -2.076140 -1.444820 1.049210 16.377300 -0.000001 -0.000001 -1.688550 -1.162080 0.415997 6.456720 -0.000001 -0.000000 -1.946300 -0.814955 0.544274 12.994200 -0.242716 4.980390 -84.452400 -11.013600 -63.050500 5.348090 -0.000007 -0.000001 -62.951500 -53.871400 -65.370500 24.328600 0.000019 0.000005 -2.482520 -3.902070 -32.501700 22.291600 -0.000001 0.000005 19.220600 5.522260 -7.458930 12.994500 -0.242716 -4.980390 92.156300 -4.575180 -64.731500 -5.348130 -0.000001 -0.000004 -51.565900 -46.933400 -71.228700 -24.328900 0.000322 -0.000009 -2.561120 -5.084350 -26.771800 -22.291500 -0.000108 -0.000004 17.316800 5.360170 -1.685030 -2.192480 -6.469440 -0.000000 -169.886000 -18.047700 -2.373040 39.081100 -0.000007 -0.000012 -0.173742 0.430957 21.957300 40.985400 -0.000006 -0.000013 -6.280190 -2.250330 -63.765500 11.754300 -0.000000 0.000003 -0.000117 -0.001174 -16.622500 -2.192510 6.469440 -0.000001 173.440000 20.502300 -179.964000 -39.081100 -0.002282 -0.040193 0.000060 0.009651 18.685900 -40.985400 0.000008 0.000006 -2.645990 2.148280 -62.684300 -11.754300 -0.000006 -0.000006 -0.004033 -0.051779 -18.679400
0.000000 0.000000 0.000000 0.000000 0.000000 -0.000000 -0.246819 92.141800 1.352730 88.024300 -1.653430 3.648260 15.735700 0.000005 -0.000001 76.727900 87.031800 -76.196900 8.984550 -0.406207 -0.000000 -1.981580 -1.407680 1.037420 16.377300 -0.000001 -0.000001 -1.780130 -1.236180 0.611330 6.456720 -0.000001 -0.000000 -1.841950 -0.879269 0.409606 12.994200 -0.242716 4.980390 -84.743500 -10.774900 -63.797700 5.348090 -0.000007 -0.000001 -61.422500 -54.597000 -57.444500 24.328600 0.000019 0.000005 -2.604950 -4.251270 -31.540300 22.291600 -0.000001 0.000005 19.084200 5.524650 -7.561970 12.994500 -0.242716 -4.980390 91.891100 -4.060440 -65.000200 -5.348130 -0.000001 -0.000004 -49.891300 -46.643600 -64.302800 -24.328900 0.000322 -0.000009 -2.683010 -5.503740 -26.031100 -22.291500 -0.000108 -0.000004 17.255100 5.349880 -1.373310 -2.192480 -6.469440 -0.000000 -169.901000 -18.082500 -2.462930 39.081100 -0.000007 -0.000012 -0.174425 0.431312 22.018900 40.985400 -0.000006 -0.000013 -6.283250 -2.198130 -63.828400 11.754300 -0.000000 0.000003 -0.000130 -0.001287 -16.626700 -2.192510 6.469440 -0.000001 173.433000 20.533400 179.996000 -39.081100 -0.002282 -0.040193 -0.002667 0.017706 18.692900 -40.985400 0.000008 0.000006 -2.742200 2.190890 -62.732000 -11.754300 -0.000006 -0.000006 -0.004078 -0.052251 -18.698600
